<svg width="184" height="184" viewBox="0 0 184 184" fill="none" xmlns="http://www.w3.org/2000/svg">
<path d="M88.081 117.863C52.1367 118.463 15.604 102.871 1.02832 95C-1.3788 95 -1.28705 100.997 21.0866 112.991C45.5576 126.109 67.6258 131.356 86.8775 130.981C125.389 130.232 153.07 117.863 162.698 112.241C170.4 107.743 168.046 104.87 165.907 103.995C154.942 108.368 124.025 117.263 88.081 117.863Z" fill="#FFD439"/>
<path d="M58.04 53H88.8488V57.6862L67.6498 101.074L60.0833 97.4075L77.7066 61.3842H58.04V53Z" fill="#8278B8"/>
<path d="M94.6913 53H110.096H125.5V57.6862L104.301 101.074L96.7346 97.4075L114.358 61.3842H94.6913V53Z" fill="#8278B8"/>
<path d="M174.223 100.384C171.694 97.3332 156.642 99.6263 149.45 99.6263C149.184 99.3738 148.252 98.869 150.249 96.9754C151.606 95.6893 157.042 93.2358 163.835 92.4312C167.031 92.0526 180.217 91.2952 182.614 93.5673C185.411 96.218 183.361 104.333 181.815 109.094C180.217 114.016 171.426 125.377 169.429 123.862C167.431 122.347 178.619 105.685 174.223 100.384Z" fill="#FFD439"/>
</svg>
