<svg width="32" height="32" viewBox="0 0 32 32" fill="none" xmlns="http://www.w3.org/2000/svg">
<path d="M11.5625 15.5996C12.5915 17.7246 14.3098 19.4385 16.4375 20.4621C16.5944 20.5364 16.768 20.5685 16.9412 20.5554C17.1143 20.5422 17.2811 20.4842 17.425 20.3871L20.55 18.2996C20.6881 18.2059 20.8476 18.1488 21.0137 18.1335C21.1799 18.1182 21.3471 18.1452 21.5 18.2121L27.35 20.7246C27.5499 20.8078 27.717 20.9544 27.8254 21.1419C27.9338 21.3293 27.9776 21.5473 27.95 21.7621C27.7646 23.2092 27.0582 24.5393 25.9631 25.5033C24.8679 26.4673 23.459 26.9992 22 26.9996C17.4913 26.9996 13.1673 25.2085 9.97918 22.0204C6.79107 18.8322 5 14.5082 5 9.99955C5.00033 8.54055 5.53227 7.13165 6.49628 6.0365C7.4603 4.94134 8.79033 4.23497 10.2375 4.04955C10.4523 4.02196 10.6702 4.06574 10.8577 4.17416C11.0452 4.28258 11.1918 4.44962 11.275 4.64955L13.7875 10.5121C13.8528 10.6625 13.8802 10.8267 13.8671 10.9902C13.854 11.1537 13.8009 11.3114 13.7125 11.4496L11.625 14.6246C11.5321 14.7682 11.4775 14.9332 11.4666 15.1039C11.4556 15.2746 11.4887 15.4453 11.5625 15.5996V15.5996Z" stroke="#8278B8" stroke-width="2" stroke-linecap="round" stroke-linejoin="round"/>
</svg>
