<svg width="483" height="183" viewBox="0 0 483 183" fill="none" xmlns="http://www.w3.org/2000/svg">
<path d="M236.48 97.2947C183.711 98.1942 130.078 74.8064 108.68 63C105.146 63 105.28 71.9953 138.127 89.986C174.052 109.663 206.45 117.534 234.713 116.972C291.252 115.848 331.889 97.2947 346.024 88.8616C357.331 82.1151 353.876 77.8048 350.735 76.493C334.638 83.0521 289.25 96.3952 236.48 97.2947Z" fill="#FFD439"/>
<path d="M192.378 0H237.608V7.02932L206.486 72.1103L195.377 66.6112L221.25 12.5763H192.378V0Z" fill="#8278B8"/>
<path d="M246.185 0H268.8H291.415V7.02932L260.293 72.1103L249.185 66.6112L275.057 12.5763H246.185V0Z" fill="#8278B8"/>
<path d="M35.2466 136.903L27.3255 144.984C24.107 141.733 21.1854 140.107 18.5607 140.107C17.1233 140.107 15.9984 140.426 15.186 141.063C14.3736 141.669 13.9674 142.434 13.9674 143.358C13.9674 144.06 14.2174 144.713 14.7173 145.319C15.2485 145.893 16.5296 146.69 18.5607 147.71L23.2477 150.101C28.1847 152.587 31.575 155.122 33.4186 157.704C35.2622 160.286 36.184 163.315 36.184 166.789C36.184 171.412 34.5123 175.269 31.1688 178.362C27.8567 181.454 23.404 183 17.8108 183C10.374 183 4.43707 180.035 0 174.106L7.87423 165.355C9.37408 167.14 11.1239 168.591 13.1237 169.706C15.1548 170.79 16.9515 171.332 18.5138 171.332C20.2012 171.332 21.5604 170.918 22.5915 170.089C23.6227 169.26 24.1383 168.304 24.1383 167.22C24.1383 165.211 22.2791 163.251 18.5607 161.338L14.2486 159.138C5.99942 154.899 1.87482 149.591 1.87482 143.215C1.87482 139.103 3.42154 135.596 6.51499 132.695C9.63968 129.762 13.6237 128.296 18.4669 128.296C21.7791 128.296 24.8882 129.045 27.7942 130.543C30.7314 132.009 33.2155 134.129 35.2466 136.903Z" fill="#8278B8"/>
<path d="M97.3967 159.425H56.2914C56.8851 163.123 58.463 166.072 61.0253 168.272C63.6188 170.44 66.9153 171.523 70.9149 171.523C75.6957 171.523 79.8047 169.818 83.2419 166.407L94.0221 171.571C91.3348 175.461 88.1164 178.346 84.3668 180.226C80.6171 182.075 76.1644 183 71.0087 183C63.0095 183 56.4945 180.434 51.4637 175.301C46.433 170.137 43.9176 163.681 43.9176 155.935C43.9176 147.997 46.4173 141.414 51.4168 136.186C56.4476 130.926 62.7439 128.296 70.3056 128.296C78.3361 128.296 84.8667 130.926 89.8975 136.186C94.9282 141.414 97.4436 148.331 97.4436 156.939L97.3967 159.425ZM84.5542 149.144C83.7106 146.243 82.0389 143.884 79.5391 142.067C77.0706 140.25 74.1959 139.342 70.9149 139.342C67.3528 139.342 64.2281 140.362 61.5409 142.402C59.8535 143.677 58.2912 145.925 56.8538 149.144H84.5542Z" fill="#8278B8"/>
<path d="M107.708 129.634H120.551V135.612C122.738 133.157 125.16 131.324 127.816 130.113C130.503 128.901 133.424 128.296 136.58 128.296C139.768 128.296 142.642 129.093 145.205 130.686C147.767 132.28 149.829 134.608 151.391 137.668C153.423 134.608 155.907 132.28 158.844 130.686C161.812 129.093 165.046 128.296 168.546 128.296C172.171 128.296 175.358 129.156 178.108 130.878C180.857 132.599 182.826 134.847 184.013 137.62C185.232 140.394 185.841 144.904 185.841 151.153V181.661H172.952V155.265C172.952 149.368 172.233 145.383 170.796 143.311C169.358 141.207 167.202 140.155 164.328 140.155C162.14 140.155 160.172 140.792 158.422 142.067C156.703 143.342 155.422 145.112 154.579 147.375C153.735 149.607 153.313 153.209 153.313 158.182V181.661H140.424V156.461C140.424 151.806 140.08 148.443 139.393 146.371C138.736 144.267 137.737 142.705 136.393 141.685C135.049 140.665 133.424 140.155 131.518 140.155C129.394 140.155 127.456 140.808 125.706 142.115C123.988 143.39 122.691 145.191 121.816 147.519C120.973 149.846 120.551 153.512 120.551 158.517V181.661H107.708V129.634Z" fill="#8278B8"/>
<path d="M249.163 159.425H208.058C208.651 163.123 210.229 166.072 212.792 168.272C215.385 170.44 218.682 171.523 222.681 171.523C227.462 171.523 231.571 169.818 235.008 166.407L245.788 171.571C243.101 175.461 239.883 178.346 236.133 180.226C232.384 182.075 227.931 183 222.775 183C214.776 183 208.261 180.434 203.23 175.301C198.199 170.137 195.684 163.681 195.684 155.935C195.684 147.997 198.184 141.414 203.183 136.186C208.214 130.926 214.51 128.296 222.072 128.296C230.102 128.296 236.633 130.926 241.664 136.186C246.695 141.414 249.21 148.331 249.21 156.939L249.163 159.425ZM236.321 149.144C235.477 146.243 233.805 143.884 231.306 142.067C228.837 140.25 225.962 139.342 222.681 139.342C219.119 139.342 215.995 140.362 213.307 142.402C211.62 143.677 210.058 145.925 208.62 149.144H236.321Z" fill="#FFD439"/>
<path d="M259.568 129.634H272.317V134.942C275.223 132.456 277.848 130.734 280.191 129.778C282.566 128.79 284.988 128.296 287.456 128.296C292.518 128.296 296.815 130.097 300.346 133.699C303.314 136.759 304.798 141.286 304.798 147.279V181.661H292.143V158.852C292.143 152.635 291.862 148.507 291.3 146.467C290.768 144.426 289.815 142.88 288.441 141.828C287.097 140.744 285.425 140.202 283.425 140.202C280.832 140.202 278.598 141.095 276.723 142.88C274.879 144.634 273.598 147.072 272.88 150.196C272.505 151.822 272.317 155.345 272.317 160.764V181.661H259.568V129.634Z" fill="#FFD439"/>
<path d="M354.903 129.634H367.652V181.661H354.903V176.162C352.403 178.585 349.888 180.338 347.357 181.422C344.857 182.474 342.138 183 339.201 183C332.608 183 326.906 180.402 322.094 175.205C317.281 169.977 314.875 163.49 314.875 155.743C314.875 147.71 317.203 141.127 321.859 135.994C326.515 130.862 332.171 128.296 338.826 128.296C341.888 128.296 344.763 128.885 347.45 130.065C350.138 131.244 352.622 133.014 354.903 135.373V129.634ZM341.451 140.346C337.483 140.346 334.186 141.78 331.561 144.649C328.937 147.487 327.624 151.137 327.624 155.6C327.624 160.095 328.952 163.793 331.608 166.694C334.295 169.595 337.592 171.045 341.498 171.045C345.529 171.045 348.872 169.627 351.528 166.789C354.184 163.92 355.512 160.175 355.512 155.552C355.512 151.025 354.184 147.359 351.528 144.554C348.872 141.748 345.513 140.346 341.451 140.346Z" fill="#FFD439"/>
<path d="M387.571 168.033C389.603 168.033 391.337 168.766 392.774 170.232C394.211 171.667 394.93 173.42 394.93 175.492C394.93 177.565 394.211 179.334 392.774 180.8C391.337 182.267 389.603 183 387.571 183C385.54 183 383.806 182.267 382.369 180.8C380.931 179.334 380.213 177.565 380.213 175.492C380.213 173.42 380.931 171.667 382.369 170.232C383.806 168.766 385.54 168.033 387.571 168.033Z" fill="#FFD439"/>
<path d="M404.492 129.634H415.459V136.186C416.647 133.603 418.225 131.643 420.193 130.304C422.162 128.965 424.318 128.296 426.661 128.296C428.317 128.296 430.052 128.742 431.864 129.634L427.88 140.872C426.38 140.107 425.146 139.724 424.177 139.724C422.209 139.724 420.537 140.967 419.162 143.454C417.818 145.941 417.147 150.818 417.147 158.086L417.194 160.621V181.661H404.492V129.634Z" fill="#FFD439"/>
<path d="M438.192 129.634H451.128V154.691C451.128 159.569 451.456 162.964 452.112 164.877C452.768 166.758 453.815 168.224 455.252 169.276C456.721 170.328 458.518 170.854 460.642 170.854C462.767 170.854 464.564 170.344 466.033 169.324C467.532 168.272 468.642 166.742 469.36 164.733C469.892 163.235 470.157 160.031 470.157 155.122V129.634H483V151.679C483 160.764 482.297 166.981 480.89 170.328C479.172 174.409 476.641 177.549 473.297 179.748C469.954 181.916 465.704 183 460.549 183C454.955 183 450.425 181.725 446.956 179.174C443.519 176.624 441.097 173.07 439.691 168.511C438.691 165.355 438.192 159.617 438.192 151.296V129.634Z" fill="#FFD439"/>
<path d="M362.944 71.0757C359.231 66.4997 337.134 69.9394 326.575 69.9394C326.184 69.5607 324.815 68.8035 327.748 65.9631C329.74 64.034 337.72 60.3537 347.693 59.1468C352.385 58.5789 371.743 57.4428 375.263 60.8509C379.369 64.8269 376.359 76.9994 374.09 84.1403C371.743 91.5247 358.838 108.565 355.905 106.293C352.972 104.021 369.397 79.0281 362.944 71.0757Z" fill="#FFD439"/>
</svg>
