<svg width="160" height="38" viewBox="0 0 160 38" fill="none" xmlns="http://www.w3.org/2000/svg">
<path d="M37.808 31.7277C22.5303 31.9825 7.00256 25.3577 0.807376 22.0134C-0.215742 22.0134 -0.176744 24.5614 9.33287 29.6575C19.734 35.2312 29.1138 37.4607 37.2965 37.3015C53.6654 36.983 65.4305 31.7277 69.5228 29.339C72.7966 27.4279 71.7962 26.207 70.8869 25.8354C66.2263 27.6934 53.0857 31.4729 37.808 31.7277Z" fill="#FFD439"/>
<path d="M0 0H12.3224V1.87376L3.84358 19.2219L0.817239 17.7561L7.86592 3.35237H0V0Z" fill="#8278B8"/>
<path d="M14.6592 0H26.9816V1.87376L18.5028 19.2219L15.4765 17.7561L22.5251 3.35237H14.6592V0Z" fill="#8278B8"/>
<path d="M38.0144 6.81945L35.8563 8.97364C34.9795 8.10686 34.1836 7.67348 33.4685 7.67348C33.0769 7.67348 32.7704 7.75846 32.5491 7.92841C32.3277 8.08987 32.2171 8.29381 32.2171 8.54025C32.2171 8.7272 32.2852 8.9014 32.4214 9.06286C32.5661 9.21582 32.9151 9.42827 33.4685 9.70019L34.7454 10.3375C36.0905 11.0004 37.0141 11.6759 37.5164 12.3642C38.0186 13.0526 38.2698 13.8598 38.2698 14.7861C38.2698 16.0183 37.8143 17.0465 36.9034 17.8708C36.0011 18.6951 34.788 19.1072 33.2642 19.1072C31.2381 19.1072 29.6206 18.3169 28.4118 16.7363L30.5571 14.4037C30.9657 14.8796 31.4424 15.2662 31.9872 15.5636C32.5406 15.8526 33.0301 15.997 33.4557 15.997C33.9154 15.997 34.2857 15.8866 34.5666 15.6656C34.8476 15.4447 34.988 15.1897 34.988 14.9008C34.988 14.3655 34.4815 13.8429 33.4685 13.333L32.2937 12.7466C30.0463 11.6164 28.9226 10.2016 28.9226 8.50201C28.9226 7.4058 29.344 6.47105 30.1868 5.69775C31.038 4.91595 32.1234 4.52506 33.4429 4.52506C34.3453 4.52506 35.1923 4.72476 35.984 5.12415C36.7843 5.51505 37.461 6.08015 38.0144 6.81945Z" fill="#8278B8"/>
<path d="M54.9465 12.8231H43.7478C43.9095 13.8089 44.3395 14.5949 45.0375 15.1812C45.7441 15.7591 46.6422 16.048 47.7318 16.048C49.0343 16.048 50.1538 15.5934 51.0902 14.6841L54.0271 16.0608C53.295 17.0975 52.4182 17.8665 51.3966 18.3679C50.3751 18.8608 49.162 19.1072 47.7574 19.1072C45.5781 19.1072 43.8031 18.4231 42.4326 17.055C41.062 15.6784 40.3767 13.9576 40.3767 11.8926C40.3767 9.77667 41.0577 8.02189 42.4198 6.62825C43.7904 5.22612 45.5057 4.52506 47.5658 4.52506C49.7537 4.52506 51.5329 5.22612 52.9034 6.62825C54.274 8.02189 54.9593 9.8659 54.9593 12.1603L54.9465 12.8231ZM51.4477 10.0826C51.2179 9.3093 50.7624 8.68046 50.0814 8.19609C49.4089 7.71172 48.6257 7.46953 47.7318 7.46953C46.7614 7.46953 45.9101 7.74146 45.178 8.28532C44.7183 8.62523 44.2926 9.22432 43.901 10.0826H51.4477Z" fill="#8278B8"/>
<path d="M57.7558 4.88196H61.2546V6.47529C61.8505 5.82097 62.5102 5.33235 63.2338 5.00943C63.966 4.68652 64.7619 4.52506 65.6217 4.52506C66.49 4.52506 67.2732 4.7375 67.9713 5.16239C68.6693 5.58728 69.2312 6.20761 69.6568 7.0234C70.2102 6.20761 70.8869 5.58728 71.6871 5.16239C72.4959 4.7375 73.377 4.52506 74.3304 4.52506C75.3179 4.52506 76.1862 4.7545 76.9354 5.21338C77.6845 5.67226 78.2208 6.27135 78.5443 7.01065C78.8763 7.74996 79.0423 8.95239 79.0423 10.618V18.7503H75.5307V11.7142C75.5307 10.1421 75.3349 9.07986 74.9433 8.5275C74.5517 7.96665 73.9644 7.68622 73.1812 7.68622C72.5853 7.68622 72.049 7.85618 71.5722 8.19609C71.104 8.536 70.755 9.00763 70.5251 9.61097C70.2953 10.2058 70.1804 11.1661 70.1804 12.4917V18.7503H66.6688V12.0328C66.6688 10.7922 66.5751 9.89564 66.3879 9.34329C66.2091 8.78244 65.9367 8.36605 65.5706 8.09412C65.2046 7.82219 64.7619 7.68622 64.2426 7.68622C63.6637 7.68622 63.1359 7.86043 62.6592 8.20884C62.191 8.54875 61.8377 9.02887 61.5994 9.64921C61.3695 10.2695 61.2546 11.2468 61.2546 12.5809V18.7503H57.7558V4.88196Z" fill="#8278B8"/>
<path d="M96.2937 12.8231H85.095C85.2567 13.8089 85.6866 14.5949 86.3847 15.1812C87.0912 15.7591 87.9894 16.048 89.079 16.048C90.3815 16.048 91.5009 15.5934 92.4373 14.6841L95.3743 16.0608C94.6422 17.0975 93.7654 17.8665 92.7438 18.3679C91.7223 18.8608 90.5092 19.1072 89.1045 19.1072C86.9252 19.1072 85.1503 18.4231 83.7797 17.055C82.4091 15.6784 81.7239 13.9576 81.7239 11.8926C81.7239 9.77667 82.4049 8.02189 83.767 6.62825C85.1375 5.22612 86.8529 4.52506 88.913 4.52506C91.1008 4.52506 92.88 5.22612 94.2506 6.62825C95.6212 8.02189 96.3065 9.8659 96.3065 12.1603L96.2937 12.8231ZM92.7949 10.0826C92.565 9.3093 92.1096 8.68046 91.4286 8.19609C90.7561 7.71172 89.9729 7.46953 89.079 7.46953C88.1085 7.46953 87.2572 7.74146 86.5251 8.28532C86.0654 8.62523 85.6398 9.22432 85.2482 10.0826H92.7949Z" fill="#FFD439"/>
<path d="M99.1285 4.88196H102.602V6.29684C103.393 5.63402 104.109 5.17514 104.747 4.9202C105.394 4.65677 106.054 4.52506 106.726 4.52506C108.105 4.52506 109.276 5.00518 110.238 5.96543C111.047 6.78121 111.451 7.9879 111.451 9.58547V18.7503H108.003V12.6702C108.003 11.0131 107.927 9.91264 107.773 9.36878C107.629 8.82492 107.369 8.41278 106.994 8.13236C106.628 7.84343 106.173 7.69897 105.628 7.69897C104.922 7.69897 104.313 7.93691 103.802 8.41278C103.3 8.88016 102.951 9.53024 102.755 10.363C102.653 10.7964 102.602 11.7354 102.602 13.18V18.7503H99.1285V4.88196Z" fill="#FFD439"/>
<path d="M125.101 4.88196H128.575V18.7503H125.101V17.2844C124.42 17.9303 123.735 18.3977 123.045 18.6866C122.364 18.967 121.624 19.1072 120.824 19.1072C119.027 19.1072 117.474 18.4146 116.163 17.0295C114.852 15.6359 114.196 13.9066 114.196 11.8416C114.196 9.70019 114.831 7.94541 116.099 6.57727C117.367 5.20913 118.908 4.52506 120.721 4.52506C121.556 4.52506 122.339 4.68227 123.071 4.99668C123.803 5.3111 124.48 5.78273 125.101 6.41156V4.88196ZM121.437 7.73721C120.355 7.73721 119.457 8.11961 118.742 8.88441C118.027 9.64071 117.67 10.6137 117.67 11.8034C117.67 13.0016 118.031 13.9873 118.755 14.7606C119.487 15.5339 120.385 15.9206 121.449 15.9206C122.547 15.9206 123.458 15.5424 124.182 14.7861C124.906 14.0213 125.267 13.0228 125.267 11.7906C125.267 10.584 124.906 9.60672 124.182 8.85892C123.458 8.11111 122.543 7.73721 121.437 7.73721Z" fill="#FFD439"/>
<path d="M134.002 15.1175C134.555 15.1175 135.027 15.313 135.419 15.7039C135.811 16.0863 136.006 16.5536 136.006 17.106C136.006 17.6583 135.811 18.13 135.419 18.5209C135.027 18.9118 134.555 19.1072 134.002 19.1072C133.448 19.1072 132.976 18.9118 132.584 18.5209C132.193 18.13 131.997 17.6583 131.997 17.106C131.997 16.5536 132.193 16.0863 132.584 15.7039C132.976 15.313 133.448 15.1175 134.002 15.1175Z" fill="#FFD439"/>
<path d="M138.611 4.88196H141.599V6.62825C141.923 5.93993 142.353 5.41732 142.889 5.06042C143.425 4.70351 144.013 4.52506 144.651 4.52506C145.102 4.52506 145.575 4.64403 146.069 4.88196L144.983 7.87742C144.575 7.67348 144.238 7.57151 143.974 7.57151C143.438 7.57151 142.983 7.90292 142.608 8.56574C142.242 9.22857 142.059 10.5287 142.059 12.4662L142.072 13.1418V18.7503H138.611V4.88196Z" fill="#FFD439"/>
<path d="M147.792 4.88196H151.317V11.5612C151.317 12.8614 151.406 13.7664 151.585 14.2762C151.764 14.7776 152.049 15.1685 152.441 15.4489C152.841 15.7294 153.33 15.8696 153.909 15.8696C154.488 15.8696 154.977 15.7336 155.377 15.4617C155.786 15.1812 156.088 14.7734 156.284 14.238C156.429 13.8386 156.501 12.9846 156.501 11.6759V4.88196H160V10.7582C160 13.18 159.808 14.8371 159.425 15.7294C158.957 16.8171 158.268 17.6541 157.357 18.2404C156.446 18.8183 155.288 19.1072 153.883 19.1072C152.36 19.1072 151.125 18.7673 150.18 18.0875C149.244 17.4077 148.584 16.4602 148.201 15.245C147.929 14.4037 147.792 12.8741 147.792 10.6562V4.88196Z" fill="#FFD439"/>
<path d="M74.3977 24.3698C73.3052 23.0671 66.8033 24.0463 63.6964 24.0463C63.5814 23.9385 63.1787 23.723 64.0416 22.9144C64.6277 22.3652 66.9759 21.3175 69.9101 20.9739C71.2909 20.8123 76.9867 20.4888 78.0223 21.459C79.2304 22.5909 78.3448 26.0561 77.6771 28.089C76.9867 30.1911 73.1895 35.0421 72.3265 34.3953C71.4635 33.7485 76.2963 26.6336 74.3977 24.3698Z" fill="#FFD439"/>
</svg>
