<svg width="746" height="753" viewBox="0 0 746 753" fill="none" xmlns="http://www.w3.org/2000/svg">
<path d="M581.594 670.431C581.594 670.431 579.476 659.05 571.894 651.468C564.312 643.887 555.083 643.063 548.274 640.928C543.416 639.126 538.876 636.561 534.825 633.329C534.825 633.329 542.827 651.821 547.887 658.21C552.948 664.598 559.655 668.75 563.909 669.591C568.162 670.431 581.594 670.431 581.594 670.431Z" fill="#8278B8" stroke="#3E3E3E" stroke-miterlimit="10"/>
<path d="M594.236 601.27C594.236 601.27 594.236 590.729 598.456 585.669C602.676 580.609 625.018 573.431 625.018 573.431C625.018 573.431 618.697 586.51 609.888 593.604C601.078 600.698 594.236 601.27 594.236 601.27Z" fill="#8278B8" stroke="#3E3E3E" stroke-miterlimit="10"/>
<path d="M588.335 610.146C588.335 610.146 583.291 609.726 581.61 596.227C579.929 582.727 587.931 557.847 587.931 557.847C587.931 557.847 596.337 578.02 595.093 590.746C593.849 603.472 592.554 602.951 588.335 610.146Z" fill="#8278B8" stroke="#3E3E3E" stroke-miterlimit="10"/>
<path d="M595.077 646.408C595.077 646.408 595.918 628.689 607.316 622.368C616.226 617.646 625.385 613.409 634.752 609.676C634.752 609.676 630.112 625.276 623.791 632.018C617.47 638.759 611.132 646.778 605.298 648.829C603.541 649.437 601.646 649.532 599.836 649.103C598.026 648.675 596.376 647.74 595.077 646.408Z" fill="#8278B8" stroke="#3E3E3E" stroke-miterlimit="10"/>
<path d="M578.636 616.888C574.899 608.074 568.945 600.377 561.354 594.546C548.695 584.846 541.533 584.459 541.533 584.459C541.533 584.459 544.475 602.161 554.596 611.021C564.716 619.88 578.636 616.888 578.636 616.888Z" fill="#8278B8" stroke="#3E3E3E" stroke-miterlimit="10"/>
<path d="M588.756 700.372V597.488" stroke="#3E3E3E" stroke-miterlimit="10"/>
<path d="M589.176 676.769L567.254 656.949" stroke="#3E3E3E" stroke-miterlimit="10"/>
<path d="M589.596 652.729L613.215 631.228" stroke="#3E3E3E" stroke-miterlimit="10"/>
<path d="M588.755 624.89L561.353 605.086" stroke="#3E3E3E" stroke-miterlimit="10"/>
<path d="M589.596 605.927L603.515 592.427" stroke="#3E3E3E" stroke-miterlimit="10"/>
<path d="M552.695 710.089C552.695 710.089 582.653 695.951 588.907 695.531C595.16 695.11 625.522 710.543 625.522 710.543L552.695 710.089Z" fill="#3E3E3E" stroke="#3E3E3E" stroke-miterlimit="10"/>
<path d="M141.728 670.431C141.728 670.431 139.626 659.05 132.028 651.468C124.429 643.887 115.216 643.063 108.492 640.928C103.634 639.126 99.0937 636.561 95.043 633.329C95.043 633.329 103.062 651.821 108.122 658.21C113.182 664.598 119.89 668.75 124.143 669.591C128.396 670.431 141.728 670.431 141.728 670.431Z" fill="#8278B8" stroke="#3E3E3E" stroke-miterlimit="10"/>
<path d="M154.387 601.27C154.387 601.27 154.387 590.729 158.59 585.669C162.792 580.609 185.168 573.431 185.168 573.431C185.168 573.431 178.83 586.51 170.038 593.604C161.246 600.698 154.387 601.27 154.387 601.27Z" fill="#8278B8" stroke="#3E3E3E" stroke-miterlimit="10"/>
<path d="M148.469 610.146C148.469 610.146 143.426 609.726 141.745 596.227C140.064 582.727 148.066 557.847 148.066 557.847C148.066 557.847 156.471 578.02 155.244 590.746C154.017 603.472 152.689 602.951 148.469 610.146Z" fill="#8278B8" stroke="#3E3E3E" stroke-miterlimit="10"/>
<path d="M155.228 646.408C155.228 646.408 156.068 628.689 167.449 622.368C176.353 617.646 185.507 613.409 194.868 609.676C194.868 609.676 190.228 625.276 183.891 632.018C177.553 638.759 171.249 646.778 165.398 648.829C163.647 649.426 161.763 649.516 159.963 649.088C158.163 648.659 156.522 647.73 155.228 646.408Z" fill="#8278B8" stroke="#3E3E3E" stroke-miterlimit="10"/>
<path d="M138.82 616.888C135.073 608.066 129.101 600.368 121.487 594.546C108.845 584.846 101.667 584.459 101.667 584.459C101.667 584.459 104.626 602.161 114.746 611.021C124.866 619.88 138.82 616.888 138.82 616.888Z" fill="#8278B8" stroke="#3E3E3E" stroke-miterlimit="10"/>
<path d="M148.906 700.372V597.488" stroke="#3E3E3E" stroke-miterlimit="10"/>
<path d="M149.326 676.769L127.388 656.949" stroke="#3E3E3E" stroke-miterlimit="10"/>
<path d="M149.747 652.729L173.35 631.228" stroke="#3E3E3E" stroke-miterlimit="10"/>
<path d="M148.906 624.89L121.487 605.086" stroke="#3E3E3E" stroke-miterlimit="10"/>
<path d="M149.747 605.927L163.65 592.427" stroke="#3E3E3E" stroke-miterlimit="10"/>
<path d="M112.829 710.089C112.829 710.089 142.804 695.951 149.04 695.531C155.277 695.11 185.672 710.543 185.672 710.543L112.829 710.089Z" fill="#3E3E3E" stroke="#3E3E3E" stroke-miterlimit="10"/>
<path d="M706.45 710.459H22.5527" stroke="#3E3E3E" stroke-miterlimit="10"/>
<path d="M240.209 83.6527C240.209 83.6527 221.195 61.3442 202.283 61.3442C183.37 61.3442 176.629 72.4901 169.938 75.8355C163.247 79.1809 147.629 70.271 135.357 69.111C123.085 67.951 115.285 82.56 110.813 84.7286C106.341 86.8973 96.3215 80.2737 85.1589 84.7286C73.9962 89.1836 74.013 94.8154 69.5412 94.8154C65.0695 94.8154 55.05 89.2509 47.2328 89.2509C39.4155 89.2509 27.1602 100.397 27.1602 100.397H292.626C292.626 100.397 287.062 89.2509 271.444 85.9054C255.826 82.56 255.826 89.2341 240.209 83.6527Z" stroke="#3E3E3E" stroke-miterlimit="10"/>
<path d="M694.179 244.267C694.179 244.267 682.26 230.247 670.34 230.247C658.421 230.247 654.218 237.257 650.016 239.358C645.813 241.46 635.995 235.862 628.279 235.155C620.562 234.449 615.653 243.561 612.846 244.973C610.039 246.385 603.734 242.166 596.724 244.973C589.714 247.781 589.714 251.277 586.906 251.277C584.099 251.277 577.795 247.781 572.886 247.781C567.977 247.781 560.277 254.791 560.277 254.791H727.213C725.77 252.412 723.835 250.369 721.539 248.798C719.243 247.226 716.638 246.163 713.898 245.679C703.996 243.578 703.996 247.781 694.179 244.267Z" stroke="#3E3E3E" stroke-miterlimit="10"/>
<path d="M179.168 248.1C179.168 248.1 171.586 239.19 164.037 239.19C156.489 239.19 153.783 243.645 151.11 244.99C148.437 246.335 142.2 242.754 137.308 242.317C132.416 241.88 129.289 247.663 127.507 248.554C125.725 249.445 121.707 246.772 117.252 248.554C112.797 250.336 112.797 252.555 111.015 252.555C109.233 252.555 105.232 250.336 102.105 250.336C98.978 250.336 94.0859 254.791 94.0859 254.791H200.114C199.203 253.284 197.983 251.988 196.534 250.989C195.085 249.989 193.44 249.308 191.709 248.991C185.354 247.663 185.354 250.336 179.168 248.1Z" stroke="#3E3E3E" stroke-miterlimit="10"/>
<path d="M594.908 152.848C624.489 152.848 648.469 128.868 648.469 99.2871C648.469 69.7064 624.489 45.7266 594.908 45.7266C565.328 45.7266 541.348 69.7064 541.348 99.2871C541.348 128.868 565.328 152.848 594.908 152.848Z" stroke="#3E3E3E" stroke-miterlimit="10"/>
<path d="M594.909 171.777V197.431" stroke="#3E3E3E" stroke-miterlimit="10"/>
<path d="M594.909 0V25.6539" stroke="#3E3E3E" stroke-miterlimit="10"/>
<path d="M667.97 98.7156H693.624" stroke="#3E3E3E" stroke-miterlimit="10"/>
<path d="M496.193 98.7156H521.847" stroke="#3E3E3E" stroke-miterlimit="10"/>
<path d="M646.569 47.0546L664.709 28.8984" stroke="#3E3E3E" stroke-miterlimit="10"/>
<path d="M525.108 168.516L543.248 150.376" stroke="#3E3E3E" stroke-miterlimit="10"/>
<path d="M543.248 47.0546L525.108 28.8984" stroke="#3E3E3E" stroke-miterlimit="10"/>
<path d="M664.709 168.516L646.569 150.376" stroke="#3E3E3E" stroke-miterlimit="10"/>
<path d="M480.189 312.117C480.189 312.117 487.082 306.368 487.654 289.708C488.225 273.048 470.994 261.566 470.994 261.566C470.994 261.566 473.297 250.084 471.565 240.905C469.834 231.726 451.509 224.178 451.509 224.178C452.456 217.655 452.062 211.008 450.349 204.643C447.475 195.464 434.278 192.589 434.278 192.589C407.699 155.605 376.884 165.389 371.387 167.541C365.89 165.389 335.075 155.588 308.496 192.589C308.496 192.589 295.283 195.464 292.408 204.643C290.706 211.01 290.318 217.656 291.265 224.178C291.265 224.178 272.89 231.642 271.091 240.838C269.293 250.033 271.663 261.499 271.663 261.499C271.663 261.499 254.448 272.997 255.02 289.641C255.591 306.284 262.518 312.117 262.518 312.117C262.518 312.117 252.179 318.438 252.179 326.474C252.179 334.51 261.946 347.152 270.553 349.438C278.69 351.607 362.023 349.69 371.421 349.438C380.734 349.657 464.084 351.573 472.204 349.438C480.828 347.152 490.595 334.51 490.595 326.474C490.595 318.438 480.189 312.117 480.189 312.117Z" fill="#3E3E3E" stroke="#3E3E3E" stroke-miterlimit="10"/>
<path d="M333.83 298.668C333.83 298.668 278.589 328.172 269.729 339.57C260.87 350.968 289.129 473.236 289.903 477.859C290.676 482.482 292.441 496.839 346.405 501.059C400.369 505.278 426.528 493.897 430.327 489.677C432.583 487.157 434.973 484.761 437.488 482.499C437.488 482.499 480.492 349.253 475.011 339.604C469.531 329.954 432.849 307.965 421.467 302.484C410.086 297.004 405.026 296.584 405.026 296.584L333.83 298.668Z" fill="#8278B8"/>
<path opacity="0.3" d="M333.83 298.668C333.83 298.668 278.589 328.172 269.729 339.57C260.87 350.968 289.129 473.236 289.903 477.859C290.676 482.482 292.441 496.839 346.405 501.059C400.369 505.278 426.528 493.897 430.327 489.677C432.583 487.157 434.973 484.761 437.488 482.499C437.488 482.499 480.492 349.253 475.011 339.604C469.531 329.954 432.849 307.965 421.467 302.484C410.086 297.004 405.026 296.584 405.026 296.584L333.83 298.668Z" fill="#E8E8E8"/>
<path opacity="0.15" d="M467.934 374.319V371.562H470.12L471.246 366.955H467.884V352.246H474.322C474.625 350.564 474.86 349.035 475.028 347.639H467.884V337.553H473.431C467.279 330.24 449.475 318.556 435.69 310.436V312.722H425.603V309.965H434.917C431.958 308.284 429.201 306.603 426.797 305.376H425.603V304.72C423.922 303.863 422.561 303.123 421.418 302.568L420.997 302.384V305.393H406.287V296.987C405.413 296.819 404.976 296.769 404.976 296.769L401.614 296.869V305.393H398.857V296.869L374.027 297.609V305.393H363.94V297.895L359.35 298.029V305.393H344.624V298.467L340.034 298.601V305.325H337.277V298.601L333.831 298.668C333.831 298.668 324.333 303.712 312.582 310.436V312.554H308.917C293.03 321.8 274.538 333.333 269.73 339.452C265.409 345 269.932 377.009 275.799 408.849V398.947H278.556V409.034H275.832L276.69 413.623H278.556V423.34C281.313 437.428 284.103 450.642 286.238 460.527H297.872V470.613H288.441C288.861 472.496 289.197 473.976 289.449 475.22H297.855V489.139C301.482 491.458 305.407 493.274 309.522 494.536H312.565V495.46C323.655 498.381 335.008 500.194 346.456 500.874C376.716 503.227 398.117 500.705 411.852 497.293H406.388V494.536H420.964C424.183 493.503 427.21 491.947 429.924 489.929H425.704V475.22H435.791V483.911L437.472 482.314C437.472 482.314 449.929 443.732 460.588 406.563V398.88H462.756C465.211 390.188 467.497 381.732 469.481 374.05L467.934 374.319ZM278.472 374.319H275.715V371.562H278.472V374.319ZM278.472 366.955H275.715V352.246H278.472V366.955ZM278.472 347.639H275.715V337.553H278.472V347.639ZM297.788 435.932H283.078V433.158H297.788V435.932ZM297.788 428.585H283.078V413.825H297.788V428.585ZM297.788 409.269H283.078V399.183H297.788V409.269ZM297.788 374.319H283.078V371.562H297.788V374.319ZM297.788 366.955H283.078V352.246H297.788V366.955ZM297.788 347.639H283.078V337.553H297.788V347.639ZM312.498 490.198H302.411V475.489H312.498V490.198ZM312.498 470.882H302.411V460.796H312.498V470.882ZM312.498 435.932H302.411V433.158H312.498V435.932ZM312.498 428.585H302.411V413.825H312.498V428.585ZM312.498 409.269H302.411V399.183H312.498V409.269ZM312.498 374.319H302.411V371.562H312.498V374.319ZM312.498 366.955H302.411V352.246H312.498V366.955ZM312.498 347.639H302.411V337.553H312.498V347.639ZM340.102 497.562H337.345V494.805H340.102V497.562ZM340.102 490.198H337.345V475.489H340.102V490.198ZM340.102 470.882H337.345V460.796H340.102V470.882ZM340.102 435.932H337.345V433.158H340.102V435.932ZM340.102 428.585H337.345V413.825H340.102V428.585ZM340.102 409.269H337.345V399.183H340.102V409.269ZM340.102 374.319H337.345V371.562H340.102V374.319ZM340.102 366.955H337.345V352.246H340.102V366.955ZM340.102 347.639H337.345V337.553H340.102V347.639ZM340.102 312.689H337.345V309.932H340.102V312.689ZM359.418 497.612H344.691V494.855H359.418V497.612ZM359.418 490.249H344.691V475.539H359.418V490.249ZM359.418 470.933H344.691V460.846H359.418V470.933ZM359.418 435.982H344.691V433.158H359.418V435.982ZM359.418 428.636H344.691V413.825H359.418V428.636ZM359.418 409.32H344.691V399.233H359.418V409.32ZM359.418 374.369H344.691V371.612H359.418V374.369ZM359.418 367.006H344.691V352.296H359.418V367.006ZM359.418 347.69H344.691V337.603H359.418V347.69ZM359.418 312.739H344.691V309.982H359.418V312.739ZM374.128 497.663H364.041V494.906H374.128V497.663ZM374.128 490.299H364.041V475.59H374.128V490.299ZM374.128 470.983H364.041V460.897H374.128V470.983ZM374.128 436.033H364.041V433.158H374.128V436.033ZM374.128 428.686H364.041V413.825H374.128V428.686ZM374.128 409.37H364.041V399.283H374.128V409.37ZM374.178 374.319H364.091V371.562H374.178V374.319ZM374.178 366.955H364.091V352.246H374.178V366.955ZM374.178 347.639H364.091V337.553H374.178V347.639ZM374.178 312.689H364.091V309.932H374.178V312.689ZM401.765 497.612H399.008V494.855H401.765V497.612ZM401.765 490.249H399.008V475.539H401.765V490.249ZM401.765 470.933H399.008V460.846H401.765V470.933ZM401.765 435.982H399.008V433.158H401.765V435.982ZM401.765 428.636H399.008V413.825H401.765V428.636ZM401.765 409.32H399.008V399.233H401.765V409.32ZM401.765 374.369H399.008V371.612H401.765V374.369ZM401.765 367.006H399.008V352.296H401.765V367.006ZM401.765 347.69H399.008V337.603H401.765V347.69ZM401.765 312.739H399.008V309.982H401.765V312.739ZM421.081 490.249H406.371V475.539H421.081V490.249ZM421.081 470.933H406.371V460.846H421.081V470.933ZM421.081 435.982H406.371V433.158H421.081V435.982ZM421.081 428.636H406.371V413.825H421.081V428.636ZM421.081 409.32H406.371V399.233H421.081V409.32ZM421.081 374.369H406.371V371.612H421.081V374.369ZM421.081 367.006H406.371V352.296H421.081V367.006ZM421.081 347.69H406.371V337.603H421.081V347.69ZM421.081 312.739H406.371V309.982H421.081V312.739ZM435.791 470.933H425.704V460.846H435.791V470.933ZM435.791 435.982H425.704V433.158H435.791V435.982ZM435.791 428.636H425.704V413.825H435.791V428.636ZM435.791 409.32H425.704V399.233H435.791V409.32ZM435.791 374.369H425.704V371.612H435.791V374.369ZM435.791 367.006H425.704V352.296H435.791V367.006ZM435.791 347.69H425.704V337.603H435.791V347.69ZM463.277 374.319H460.588V371.562H463.277V374.319ZM463.277 366.955H460.588V352.246H463.277V366.955ZM463.277 347.639H460.588V337.553H463.277V347.639Z" fill="#3E3E3E"/>
<path d="M333.83 298.668C333.83 298.668 278.589 328.172 269.729 339.57C260.87 350.968 289.129 473.236 289.903 477.859C290.676 482.482 292.441 496.839 346.405 501.059C400.369 505.278 426.528 493.897 430.327 489.677C432.583 487.157 434.973 484.761 437.489 482.499C437.489 482.499 480.492 349.253 475.011 339.604C469.531 329.954 432.849 307.965 421.467 302.484C410.086 297.004 405.026 296.584 405.026 296.584L333.83 298.668Z" stroke="#3E3E3E" stroke-miterlimit="10"/>
<path d="M266.451 625.63C266.451 625.63 257.104 626.638 252.145 630.875C247.185 635.111 243.571 649.939 243.571 649.939L223.986 692.875C220.456 700.658 222.574 707.719 224.692 708.425C226.81 709.131 236.712 709.131 236.712 709.131H273.596C274.656 707.059 274.993 704.692 274.554 702.407C273.276 697.968 269.292 693.076 271.343 689.395C274.873 683.04 288.776 660.278 283.111 643.315C277.446 626.353 266.451 625.63 266.451 625.63Z" fill="#3E3E3E" stroke="#3E3E3E" stroke-miterlimit="10"/>
<path d="M465.042 625.63C465.042 625.63 474.389 626.638 479.331 630.875C484.274 635.111 487.922 650.023 487.922 650.023C487.922 650.023 503.96 685.192 507.49 692.959C511.02 700.725 508.919 707.803 506.784 708.509C504.649 709.215 494.781 709.215 494.781 709.215H457.897C456.837 707.143 456.5 704.776 456.939 702.491C458.216 698.052 462.184 693.16 460.15 689.479C456.603 683.124 442.716 660.362 448.382 643.399C454.047 626.437 465.042 625.63 465.042 625.63Z" fill="#3E3E3E" stroke="#3E3E3E" stroke-miterlimit="10"/>
<path d="M281.716 710.442H451.828C453.207 707.82 471.195 679.594 472.305 645.652C472.901 621.061 470.986 596.473 466.589 572.271L262.484 590.914C262.484 590.914 257.844 615.795 261.223 649.955C264.417 682.367 277.109 706.29 281.716 710.442Z" fill="#3E3E3E" stroke="#3E3E3E" stroke-miterlimit="10"/>
<path d="M303.805 315.16L319.826 476.649L292.928 467.369C292.928 467.369 267.628 557.191 262.988 587.132C258.348 617.073 268.031 652.477 281.968 672.298C295.904 692.118 338.47 706.458 367.133 704.777C395.796 703.096 421.955 695.077 437.555 673.575C453.156 652.074 465.815 622.133 467.076 578.693C468.337 535.253 443.876 470.748 443.876 470.748L415.297 477.069L447.138 317.463L437.051 310.739L426.258 381.8C426.258 381.8 410.657 386.44 373.975 386.44C337.293 386.44 319.574 376.353 319.574 376.353L312.85 310.571L303.805 315.16Z" fill="#E8E8E8" stroke="#3E3E3E" stroke-miterlimit="10"/>
<path d="M310.934 492.854C310.934 492.854 341.311 506.993 363.233 511.246" stroke="#3E3E3E" stroke-miterlimit="10"/>
<path d="M421.888 507.699C398.946 520.796 371.777 524.352 346.237 517.601" stroke="#3E3E3E" stroke-miterlimit="10"/>
<path d="M368.882 511.246C375.15 511.926 381.487 510.947 387.256 508.405" stroke="#3E3E3E" stroke-miterlimit="10"/>
<path d="M362.41 618.754C362.41 618.754 360.309 607.373 352.727 599.774C345.145 592.175 335.916 591.368 329.107 589.233C324.249 587.438 319.709 584.878 315.658 581.651C315.658 581.651 323.677 600.144 328.737 606.515C333.798 612.887 340.505 617.073 344.758 617.913C349.012 618.754 362.41 618.754 362.41 618.754Z" fill="#8278B8" stroke="#3E3E3E" stroke-miterlimit="10"/>
<path d="M375.068 549.593C375.068 549.593 375.068 539.052 379.288 533.992C383.508 528.932 405.85 521.77 405.85 521.77C405.85 521.77 399.529 534.849 390.72 541.943C381.911 549.038 375.068 549.593 375.068 549.593Z" fill="#8278B8" stroke="#3E3E3E" stroke-miterlimit="10"/>
<path d="M369.134 558.452C369.134 558.452 364.091 558.032 362.409 544.532C360.728 531.033 368.747 506.169 368.747 506.169C368.747 506.169 377.153 526.342 375.909 539.052C374.665 551.761 373.387 551.29 369.134 558.452Z" fill="#8278B8" stroke="#3E3E3E" stroke-miterlimit="10"/>
<path d="M375.858 594.714C375.858 594.714 376.699 577.012 388.08 570.691C396.985 565.979 406.138 561.753 415.499 558.032C415.499 558.032 410.859 573.633 404.538 580.374C398.217 587.115 391.879 595.134 386.046 597.185C384.288 597.776 382.398 597.857 380.595 597.42C378.793 596.983 377.151 596.045 375.858 594.714Z" fill="#8278B8" stroke="#3E3E3E" stroke-miterlimit="10"/>
<path d="M359.467 565.194C355.745 556.386 349.809 548.689 342.235 542.851C329.577 533.151 322.415 532.765 322.415 532.765C322.415 532.765 325.357 550.484 335.477 559.326C345.598 568.169 359.467 565.194 359.467 565.194Z" fill="#8278B8" stroke="#3E3E3E" stroke-miterlimit="10"/>
<path d="M369.588 648.695V545.81" stroke="#3E3E3E" stroke-miterlimit="10"/>
<path d="M370.008 625.075L348.086 605.254" stroke="#3E3E3E" stroke-miterlimit="10"/>
<path d="M370.428 601.035L394.048 579.533" stroke="#3E3E3E" stroke-miterlimit="10"/>
<path d="M369.588 573.212L342.186 553.392" stroke="#3E3E3E" stroke-miterlimit="10"/>
<path d="M370.428 554.232L384.347 540.75" stroke="#3E3E3E" stroke-miterlimit="10"/>
<path d="M467.849 712.762C467.849 712.762 416.34 677.963 410.574 671.037C404.807 664.11 395.107 656.192 386.449 652.729C377.792 649.266 371.437 644.643 354.693 652.729C337.949 660.815 336.52 671.844 332.838 674.416L277.328 713.905L260.517 720.26C260.517 720.26 285.918 719.1 292.273 717.94C298.628 716.78 313.623 716.797 313.623 716.797C313.623 716.797 298.039 723.723 306.697 724.295C315.355 724.866 331.527 718.528 335.562 717.94C339.597 717.352 342.488 717.368 356.357 721.403C370.227 725.438 372.513 727.186 374.245 726.026C376.359 724.086 378.295 721.959 380.028 719.671C380.028 719.671 370.21 721.353 399.646 724.866C429.083 728.38 427.973 719.688 427.973 719.688C427.973 719.688 438.363 719.688 448.147 719.117C457.931 718.545 462.587 722.008 472.405 722.008C482.223 722.008 467.849 712.762 467.849 712.762Z" fill="#3E3E3E" stroke="#3E3E3E" stroke-miterlimit="10"/>
<path d="M386.45 352.683L380.549 474.547L408.792 471.588L413.835 325.701C413.835 325.701 403.731 350.161 386.45 352.683Z" fill="#3E3E3E" stroke="#3E3E3E" stroke-miterlimit="10"/>
<path d="M334.586 290.263C334.586 290.263 328.686 295.743 329.106 298.668C329.526 301.593 325.744 303.308 327.845 310.89C329.946 318.472 350.187 361.912 355.668 365.711C361.148 369.511 376.329 374.117 383.927 368.653C391.526 363.19 413.011 335.35 415.549 321.01C418.088 306.67 419.349 298.668 411.75 289.388L404.168 280.176C404.168 280.176 401.63 294.516 380.128 301.677C358.626 308.839 334.586 290.263 334.586 290.263Z" fill="#3E3E3E" stroke="#3E3E3E" stroke-miterlimit="10"/>
<path d="M345.599 303.711C345.599 303.711 369.218 346.294 375.539 342.915C381.86 339.536 393.679 299.912 393.679 299.912L345.599 303.711Z" fill="#E8E8E8" stroke="#3E3E3E" stroke-miterlimit="10"/>
<path d="M375.488 342.983C375.488 342.983 364.107 348.463 358.206 348.463C352.305 348.463 341.395 331.652 336.268 323.162" stroke="#3E3E3E" stroke-miterlimit="10"/>
<path d="M407.951 285.219C407.951 285.219 412.171 300.349 408.792 315.16C405.413 329.971 399.949 345.101 388.618 349.304" stroke="#3E3E3E" stroke-miterlimit="10"/>
<path d="M420.963 238.417C420.963 238.417 421.518 226.649 428.495 230.768C435.471 234.886 427.436 253.513 423.855 257.665C421.455 260.391 418.614 262.693 415.449 264.474L419.047 241.712L420.963 238.417Z" fill="#E8E8E8" stroke="#3E3E3E" stroke-miterlimit="10"/>
<path d="M315.657 233.727C315.657 233.727 321.087 271.77 324.886 280.58C328.685 289.389 345.059 310.134 357.382 315.883C361.607 318.019 366.344 318.934 371.06 318.524C375.777 318.114 380.285 316.396 384.078 313.563C388.886 310.201 402.268 294.903 409.614 282.21C416.961 269.518 419.701 230.348 419.701 230.348L416.776 202.592C416.776 202.592 357.651 167.289 345.328 168.97C333.006 170.651 310.176 216.394 311.605 221.858C312.709 225.894 314.062 229.858 315.657 233.727Z" fill="#E8E8E8" stroke="#3E3E3E" stroke-miterlimit="10"/>
<path d="M362.04 279.705C362.04 279.705 367.689 285.135 377.641 280.008" stroke="#3E3E3E" stroke-miterlimit="10"/>
<path d="M357.231 291.944C357.231 291.944 368.226 300.702 382.633 290.481" stroke="#3E3E3E" stroke-miterlimit="10"/>
<path d="M332.62 240.77C332.62 240.77 342.707 233.945 353.029 237.66" stroke="#3E3E3E" stroke-miterlimit="10"/>
<path d="M381.709 238.282C381.709 238.282 395.023 233.558 402.202 242.334" stroke="#3E3E3E" stroke-miterlimit="10"/>
<path d="M347.633 253.917C347.498 256.59 346.086 258.758 344.438 258.775C342.791 258.792 341.597 256.623 341.715 253.95C341.833 251.277 343.262 249.109 344.909 249.092C346.557 249.075 347.75 251.244 347.633 253.917Z" fill="#3E3E3E"/>
<path d="M392.383 253.58C392.266 256.253 390.837 258.422 389.206 258.439C387.575 258.456 386.348 256.287 386.483 253.614C386.617 250.941 388.029 248.772 389.66 248.755C391.291 248.739 392.518 250.89 392.383 253.58Z" fill="#3E3E3E"/>
<path d="M352.474 186.722C352.474 186.722 349.666 192.64 345.749 202.34C341.832 212.04 332.166 221.824 326.585 223.959C322.976 225.311 319.25 226.33 315.456 227.002C315.456 227.002 318.952 233.726 315.573 233.726C312.194 233.726 309.219 224.934 309.219 224.934C309.219 224.934 297.938 195.548 304.965 171.912C306.974 165.064 310.551 158.779 315.413 153.556C320.275 148.332 326.287 144.314 332.973 141.82C332.973 141.82 343.867 125.731 374.513 129.295C405.16 132.859 420.61 145.367 431.335 177.695C442.061 210.023 426.023 227.843 423.804 229.961C421.585 232.079 423.047 237.139 420.879 238.366C418.71 239.594 416.071 232.92 416.071 232.92C406.283 229.865 396.995 225.397 388.5 219.655C376.245 210.914 361.955 191.648 358.761 187.462C355.567 183.276 352.474 186.722 352.474 186.722Z" fill="#3E3E3E" stroke="#3E3E3E" stroke-miterlimit="10"/>
<path d="M315.657 233.727C315.657 233.727 310.9 227.002 307.252 232.953C303.604 238.904 305.251 248.554 308.765 254.421C312.278 260.288 320.667 264.138 320.667 264.138L315.657 233.727Z" fill="#E8E8E8" stroke="#3E3E3E" stroke-miterlimit="10"/>
<path d="M300.427 319.38C300.427 319.38 246.883 349.741 243.924 363.644C240.965 377.546 254.902 461.468 254.902 461.468L254.465 526.41C254.465 526.41 269.595 518.391 282.304 518.391C295.013 518.391 303.806 518.811 303.806 518.811C303.806 518.811 295.787 464.847 295.787 463.166C295.787 461.485 296.224 371.663 296.224 371.663" fill="#8278B8"/>
<path opacity="0.3" d="M300.427 319.38C300.427 319.38 246.883 349.741 243.924 363.644C240.965 377.546 254.902 461.468 254.902 461.468L254.465 526.41C254.465 526.41 269.595 518.391 282.304 518.391C295.013 518.391 303.806 518.811 303.806 518.811C303.806 518.811 295.787 464.847 295.787 463.166C295.787 461.485 296.224 371.663 296.224 371.663" fill="#E8E8E8"/>
<path opacity="0.15" d="M297.787 477.741V490.165H283.077V475.455H297.451C297.215 473.774 296.997 472.244 296.812 470.849H283.077V460.762H295.803C295.803 456.509 295.803 447.111 295.921 435.932H283.077V433.158H295.938C295.938 431.645 295.938 430.115 295.938 428.568H283.06V413.825H296.005C296.005 412.295 296.005 410.748 296.005 409.235H283.044V399.149H296.056C296.056 388.036 296.156 378.673 296.173 374.319H283.044V371.562H296.19L296.56 366.955H283.111V352.245H297.821L300.46 319.413C300.46 319.413 266.098 338.897 250.917 353.809V366.955H243.604C243.604 368.283 243.604 369.83 243.604 371.562H250.934V374.319H243.689C244.008 381.043 244.849 389.751 245.958 399.149H251.001V409.235H247.286L247.891 413.825H251.001V428.552H249.774C249.993 430.098 250.228 431.645 250.447 433.141H250.833V435.764C253.019 450.457 254.851 461.468 254.851 461.468L254.414 526.41C254.414 526.41 269.544 518.391 282.254 518.391C294.963 518.391 303.755 518.811 303.755 518.811C303.755 518.811 300.208 494.25 297.787 477.741ZM283.077 337.485H297.787V347.572H283.077V337.485ZM278.471 497.528H275.714V494.771H278.471V497.528ZM278.471 490.165H275.714V475.455H278.471V490.165ZM278.471 470.849H275.714V460.762H278.471V470.849ZM278.471 435.898H275.714V433.158H278.471V435.898ZM278.471 428.552H275.714V413.825H278.471V428.552ZM278.471 409.235H275.714V399.149H278.471V409.235ZM278.471 374.285H275.714V371.528H278.471V374.285ZM278.471 366.922H275.714V352.212H278.471V366.922ZM278.471 347.606H275.714V337.519H278.471V347.606ZM297.787 497.528H283.077V494.771H297.787V497.528Z" fill="#3E3E3E"/>
<path d="M300.427 319.38C300.427 319.38 246.883 349.741 243.924 363.644C240.965 377.546 254.902 461.468 254.902 461.468L254.465 526.41C254.465 526.41 269.595 518.391 282.304 518.391C295.013 518.391 303.806 518.811 303.806 518.811C303.806 518.811 295.787 464.847 295.787 463.166C295.787 461.485 296.224 371.663 296.224 371.663" stroke="#3E3E3E" stroke-miterlimit="10"/>
<path d="M274.285 505.328C274.285 505.328 257.474 513.734 252.784 518.391C248.093 523.047 246.883 524.729 248.144 526.41C249.405 528.091 251.943 554.989 255.322 558.032C258.701 561.074 269.645 566.05 287.785 560.133C305.924 554.215 310.547 547.911 311.32 543.692C312.094 539.472 310.043 536.11 307.958 523.518C305.873 510.926 300.427 500.268 274.285 505.328Z" fill="#3E3E3E" stroke="#3E3E3E" stroke-miterlimit="10"/>
<path d="M302.965 542.851C302.965 542.851 295.366 540.33 280.623 542.011C265.88 543.692 263.324 551.711 263.324 551.711C263.324 551.711 287.785 618.334 293.265 630.555C298.745 642.777 291.584 659.656 290.743 664.296C289.903 668.935 289.886 684.957 289.886 684.957C289.886 684.957 296.224 700.557 295.787 705.618C295.35 710.678 300.83 709.837 301.284 706.038C301.738 702.239 297.922 689.227 297.922 689.227C297.922 689.227 314.733 702.676 316.044 703.97C317.355 705.265 322.382 703.97 319.844 700.188C317.375 696.795 314.703 693.556 311.841 690.487C311.841 690.487 322.382 698.069 325.29 697.212C325.663 697.156 326.02 697.02 326.336 696.814C326.652 696.608 326.919 696.335 327.12 696.016C327.321 695.697 327.451 695.338 327.501 694.964C327.551 694.591 327.519 694.21 327.409 693.85C327.409 693.85 331.611 693.85 332.049 690.487C332.486 687.125 326.131 674.046 325.711 671.087C325.29 668.129 330.754 656.747 330.754 656.747C330.754 656.747 341.715 664.766 345.094 665.153C348.473 665.54 357.753 662.614 355.635 658.428C353.516 654.242 349.734 655.47 342.993 650.023C337.4 645.793 330.904 642.915 324.013 641.617C321.054 641.197 317.288 636.574 317.288 636.574L302.965 542.851Z" fill="#E8E8E8" stroke="#3E3E3E" stroke-miterlimit="10"/>
<path d="M316.884 657.537L311.824 668.935L327.425 693.799" stroke="#3E3E3E" stroke-miterlimit="10"/>
<path d="M306.344 667.237C306.344 667.237 299.166 681.577 302.545 682.367C305.924 683.158 311.825 690.386 311.825 690.386" stroke="#3E3E3E" stroke-miterlimit="10"/>
<path d="M298.325 671.457C298.325 671.457 291.6 679.056 293.282 681.998C294.963 684.94 297.921 689.176 297.921 689.176" stroke="#3E3E3E" stroke-miterlimit="10"/>
<path d="M295.787 463.166L278.505 415.927" stroke="#3E3E3E" stroke-miterlimit="10"/>
<path d="M451.005 320.422C451.005 320.422 494.597 342.142 497.556 356.062C500.514 369.981 481.417 461.468 481.417 461.468L481.837 526.41C481.837 526.41 466.707 518.391 453.998 518.391C441.288 518.391 432.496 518.811 432.496 518.811C432.496 518.811 440.515 464.847 440.515 463.166C440.515 461.485 440.095 371.662 440.095 371.662" fill="#8278B8"/>
<path opacity="0.3" d="M451.005 320.422C451.005 320.422 494.597 342.142 497.556 356.062C500.514 369.981 481.417 461.468 481.417 461.468L481.837 526.41C481.837 526.41 466.707 518.391 453.998 518.391C441.288 518.391 432.496 518.811 432.496 518.811C432.496 518.811 440.515 464.847 440.515 463.166C440.515 461.485 440.095 371.662 440.095 371.662" fill="#E8E8E8"/>
<path opacity="0.15" d="M497.37 355.457V366.922H487.283V352.212H495.891C494.819 350.554 493.58 349.01 492.192 347.606H487.283V343.1C485.838 341.89 484.291 340.679 482.694 339.503V347.606H467.967V337.519H479.903C470.655 331.222 461.014 325.523 451.038 320.456L440.128 371.696C440.128 371.696 440.548 461.502 440.548 463.2C440.548 464.141 438.01 481.692 435.774 496.822V497.562H435.673C433.992 508.977 432.529 518.845 432.529 518.845C432.529 518.845 441.389 518.425 454.031 518.425C460.374 518.7 466.625 520.041 472.523 522.392H481.769L481.618 497.562H467.9V494.805H481.601V490.198H467.934V475.489H481.5V470.882H467.967V460.796H481.601C482.257 457.652 484.964 444.59 487.939 428.619H487.283V413.825H490.646C490.915 412.295 491.2 410.765 491.469 409.236H487.283V399.149H493.184C494.664 390.188 495.958 381.564 496.815 374.319H487.283V371.562H497.135C497.891 364.333 498.144 358.768 497.589 356.095C497.505 355.826 497.421 355.658 497.37 355.457ZM463.277 497.528H460.587V494.771H463.277V497.528ZM463.277 490.165H460.587V475.455H463.277V490.165ZM463.277 470.849H460.587V460.762H463.277V470.849ZM463.277 435.898H460.587V433.158H463.277V435.898ZM463.277 428.552H460.587V413.825H463.277V428.552ZM463.277 409.236H460.587V399.149H463.277V409.236ZM463.277 374.319H460.587V371.562H463.277V374.319ZM463.277 366.955H460.587V352.246H463.277V366.955ZM463.277 347.639H460.587V337.553H463.277V347.639ZM482.593 435.932H467.867V433.158H482.593V435.932ZM482.593 428.585H467.867V413.825H482.593V428.585ZM482.593 409.269H467.867V399.183H482.593V409.269ZM482.593 374.319H467.867V371.562H482.593V374.319ZM482.593 366.955H467.867V352.246H482.593V366.955Z" fill="#3E3E3E"/>
<path d="M451.005 320.422C451.005 320.422 494.597 342.142 497.556 356.062C500.514 369.981 481.417 461.468 481.417 461.468L481.837 526.41C481.837 526.41 466.707 518.391 453.998 518.391C441.288 518.391 432.496 518.811 432.496 518.811C432.496 518.811 440.515 464.847 440.515 463.166C440.515 461.485 440.095 371.662 440.095 371.662" stroke="#3E3E3E" stroke-miterlimit="10"/>
<path d="M462.016 505.328C462.016 505.328 472.305 506.505 483.518 518.391C488.023 523.165 489.419 524.729 488.158 526.41C486.897 528.091 484.358 554.989 480.996 558.032C477.634 561.074 466.656 566.05 448.517 560.133C430.378 554.215 425.755 547.911 424.981 543.692C424.208 539.472 426.242 536.11 428.343 523.518C430.445 510.926 435.875 500.268 462.016 505.328Z" fill="#3E3E3E" stroke="#3E3E3E" stroke-miterlimit="10"/>
<path d="M433.336 542.851C433.336 542.851 440.935 540.33 455.695 542.011C470.455 543.692 472.977 551.711 472.977 551.711C472.977 551.711 448.517 618.334 443.036 630.555C437.556 642.777 444.717 659.656 445.575 664.296C446.432 668.935 446.415 684.957 446.415 684.957C446.415 684.957 440.094 700.557 440.515 705.618C440.935 710.678 435.471 709.837 435.034 706.038C434.597 702.239 438.396 689.227 438.396 689.227C438.396 689.227 421.585 702.676 420.274 703.97C418.963 705.265 413.953 703.97 416.475 700.188C418.952 696.797 421.63 693.558 424.494 690.487C424.494 690.487 413.953 698.069 411.045 697.212C410.672 697.157 410.315 697.021 410 696.814C409.685 696.608 409.418 696.335 409.218 696.016C409.018 695.696 408.89 695.337 408.843 694.963C408.795 694.589 408.83 694.209 408.943 693.85C408.943 693.85 404.724 693.85 404.303 690.487C403.883 687.125 410.204 674.046 410.624 671.087C411.045 668.129 405.581 656.747 405.581 656.747C405.581 656.747 394.62 664.766 391.241 665.153C387.862 665.54 378.599 662.614 380.7 658.428C382.802 654.242 386.601 655.47 393.359 650.023C398.947 645.795 405.437 642.918 412.322 641.617C415.281 641.197 419.047 636.574 419.047 636.574L433.336 542.851Z" fill="#E8E8E8" stroke="#3E3E3E" stroke-miterlimit="10"/>
<path d="M419.433 657.537L424.493 668.935L408.893 693.799" stroke="#3E3E3E" stroke-miterlimit="10"/>
<path d="M429.974 667.237C429.974 667.237 437.135 681.577 433.756 682.367C430.377 683.158 424.493 690.386 424.493 690.386" stroke="#3E3E3E" stroke-miterlimit="10"/>
<path d="M438.06 671.457C438.06 671.457 444.784 679.056 443.103 681.998C441.422 684.94 438.463 689.176 438.463 689.176" stroke="#3E3E3E" stroke-miterlimit="10"/>
<path d="M440.515 463.166L457.797 415.927" stroke="#3E3E3E" stroke-miterlimit="10"/>
</svg>
